<svg xmlns="http://www.w3.org/2000/svg" width="1600" height="900" viewBox="0 0 1600 900">
<defs><linearGradient id="bg" x1="0" y1="0" x2="1" y2="1"><stop stop-color="#030712"/><stop offset="1" stop-color="#111827"/></linearGradient><pattern id="grid" width="44" height="44" patternUnits="userSpaceOnUse"><path d="M44 0H0V44" fill="none" stroke="#334155" stroke-width="1" opacity=".22"/></pattern><marker id="arrow" viewBox="0 0 10 10" refX="8" refY="5" markerWidth="6" markerHeight="6" orient="auto"><path d="M0 0L10 5L0 10Z" fill="#a78bfa"/></marker></defs>
<rect width="1600" height="900" fill="url(#bg)"/><rect width="1600" height="900" fill="url(#grid)"/>
<circle cx="1360" cy="120" r="250" fill="#a78bfa" opacity=".06"/><circle cx="250" cy="820" r="300" fill="#a78bfa" opacity=".04"/>
<text x="90" y="105" fill="#a78bfa" font-family="monospace" font-size="22" letter-spacing="4">SYSTEM ARCHITECTURE</text>
<text x="90" y="165" fill="#ffffff" font-family="monospace" font-size="43" font-weight="700">Industrial Robot Operations Intelligence</text>
<g><rect x="90" y="230" width="300" height="120" rx="18" fill="#0b1320" stroke="#a78bfa" stroke-width="2"/><text x="240.0" y="278" text-anchor="middle" fill="#ffffff" font-family="monospace" font-size="22" font-weight="700">ROS INSPECTION</text><text x="240.0" y="312" text-anchor="middle" fill="#94a3b8" font-family="monospace" font-size="15">missions • evidence</text></g><g><rect x="490" y="230" width="300" height="120" rx="18" fill="#0b1320" stroke="#a78bfa" stroke-width="2"/><text x="640.0" y="278" text-anchor="middle" fill="#ffffff" font-family="monospace" font-size="22" font-weight="700">FLEETWATCH</text><text x="640.0" y="312" text-anchor="middle" fill="#94a3b8" font-family="monospace" font-size="15">findings • follow-up</text></g><g><rect x="890" y="230" width="300" height="120" rx="18" fill="#0b1320" stroke="#a78bfa" stroke-width="2"/><text x="1040.0" y="278" text-anchor="middle" fill="#ffffff" font-family="monospace" font-size="22" font-weight="700">INCIDENT ENGINE</text><text x="1040.0" y="312" text-anchor="middle" fill="#94a3b8" font-family="monospace" font-size="15">timeline • recovery</text></g><g><rect x="1290" y="230" width="220" height="120" rx="18" fill="#0b1320" stroke="#a78bfa" stroke-width="2"/><text x="1400.0" y="278" text-anchor="middle" fill="#ffffff" font-family="monospace" font-size="22" font-weight="700">REPORTS</text><text x="1400.0" y="312" text-anchor="middle" fill="#94a3b8" font-family="monospace" font-size="15">review + export</text></g><g><rect x="90" y="535" width="300" height="120" rx="18" fill="#0b1320" stroke="#a78bfa" stroke-width="2"/><text x="240.0" y="583" text-anchor="middle" fill="#ffffff" font-family="monospace" font-size="22" font-weight="700">ROBOT / WMS / PLC</text><text x="240.0" y="617" text-anchor="middle" fill="#94a3b8" font-family="monospace" font-size="15">network • tickets</text></g><g><rect x="490" y="535" width="300" height="120" rx="18" fill="#0b1320" stroke="#a78bfa" stroke-width="2"/><text x="640.0" y="583" text-anchor="middle" fill="#ffffff" font-family="monospace" font-size="22" font-weight="700">SAFE INGESTION</text><text x="640.0" y="617" text-anchor="middle" fill="#94a3b8" font-family="monospace" font-size="15">preview • provenance</text></g><g><rect x="890" y="535" width="300" height="120" rx="18" fill="#0b1320" stroke="#a78bfa" stroke-width="2"/><text x="1040.0" y="583" text-anchor="middle" fill="#ffffff" font-family="monospace" font-size="22" font-weight="700">EVIDENCE</text><text x="1040.0" y="617" text-anchor="middle" fill="#94a3b8" font-family="monospace" font-size="15">support • contradict</text></g><g><rect x="1290" y="535" width="220" height="120" rx="18" fill="#0b1320" stroke="#a78bfa" stroke-width="2"/><text x="1400.0" y="583" text-anchor="middle" fill="#ffffff" font-family="monospace" font-size="22" font-weight="700">HUMAN REVIEW</text><text x="1400.0" y="617" text-anchor="middle" fill="#94a3b8" font-family="monospace" font-size="15">approve claims</text></g><path d="M402 290 H478" stroke="#a78bfa" stroke-width="4" opacity=".65" marker-end="url(#arrow)"/><path d="M802 290 H878" stroke="#a78bfa" stroke-width="4" opacity=".65" marker-end="url(#arrow)"/><path d="M1202 290 H1278" stroke="#a78bfa" stroke-width="4" opacity=".65" marker-end="url(#arrow)"/><path d="M402 595 H478" stroke="#a78bfa" stroke-width="4" opacity=".65" marker-end="url(#arrow)"/><path d="M802 595 H878" stroke="#a78bfa" stroke-width="4" opacity=".65" marker-end="url(#arrow)"/><path d="M1202 595 H1278" stroke="#a78bfa" stroke-width="4" opacity=".65" marker-end="url(#arrow)"/><path d="M640 365 V520" stroke="#a78bfa" stroke-width="3" opacity=".35" stroke-dasharray="10 10"/>
<text x="800" y="805" text-anchor="middle" fill="#cbd5e1" font-family="monospace" font-size="19" letter-spacing="2">LIVE ROBOT OPERATIONS + HISTORICAL INCIDENT DIAGNOSTICS</text>
<text x="90" y="855" fill="#64748b" font-family="monospace" font-size="14">Repository-derived system visualization • not a hardware photograph</text>
</svg>